<svg xmlns="http://www.w3.org/2000/svg" width="1440" height="900"><path d="M829,508L835,394L649,522Z" fill="#6ec172" stroke="#6ec172" stroke-width="1.51"/><path d="M835,394L576,396L649,522Z" fill="#78c679" stroke="#78c679" stroke-width="1.51"/><path d="M829,508L1139,550L835,394Z" fill="#5fb96b" stroke="#5fb96b" stroke-width="1.51"/><path d="M788,958L1139,550L829,508Z" fill="#4bb062" stroke="#4bb062" stroke-width="1.51"/><path d="M576,396L293,603L649,522Z" fill="#7ec980" stroke="#7ec980" stroke-width="1.51"/><path d="M484,47L344,278L576,396Z" fill="#9cd696" stroke="#9cd696" stroke-width="1.51"/><path d="M835,394L484,47L576,396Z" fill="#8ccf89" stroke="#8ccf89" stroke-width="1.51"/><path d="M1139,550L1141,229L835,394Z" fill="#62b96e" stroke="#62b96e" stroke-width="1.51"/><path d="M649,522L788,958L829,508Z" fill="#5bb769" stroke="#5bb769" stroke-width="1.51"/><path d="M344,278L293,603L576,396Z" fill="#8ed08b" stroke="#8ed08b" stroke-width="1.51"/><path d="M770,-105L484,47L835,394Z" fill="#97d493" stroke="#97d493" stroke-width="1.51"/><path d="M293,603L621,930L649,522Z" fill="#6cbe75" stroke="#6cbe75" stroke-width="1.51"/><path d="M621,930L788,958L649,522Z" fill="#57af65" stroke="#57af65" stroke-width="1.51"/><path d="M1073,-61L770,-105L835,394Z" fill="#8bcd8d" stroke="#8bcd8d" stroke-width="1.51"/><path d="M1141,229L1073,-61L835,394Z" fill="#78c47f" stroke="#78c47f" stroke-width="1.51"/><path d="M788,958L1260,797L1139,550Z" fill="#39a256" stroke="#39a256" stroke-width="1.51"/><path d="M1521,353L1364,-7L1141,229Z" fill="#69b271" stroke="#69b271" stroke-width="1.51"/><path d="M-143,577L61,794L293,603Z" fill="#8ccc91" stroke="#8ccc91" stroke-width="1.51"/><path d="M484,47L280,-38L344,278Z" fill="#afdfa8" stroke="#afdfa8" stroke-width="1.51"/><path d="M505,-334L280,-38L484,47Z" fill="#bbe4b4" stroke="#bbe4b4" stroke-width="1.51"/><path d="M293,603L318,1015L621,930Z" fill="#6bb673" stroke="#6bb673" stroke-width="1.51"/><path d="M621,930L602,1173L788,958Z" fill="#4da059" stroke="#4da059" stroke-width="1.51"/><path d="M318,1015L602,1173L621,930Z" fill="#59a561" stroke="#59a561" stroke-width="1.51"/><path d="M788,958L1070,1123L1260,797Z" fill="#2e964d" stroke="#2e964d" stroke-width="1.51"/><path d="M939,1275L1070,1123L788,958Z" fill="#319048" stroke="#319048" stroke-width="1.51"/><path d="M293,603L61,794L318,1015Z" fill="#7abe80" stroke="#7abe80" stroke-width="1.51"/><path d="M-125,357L293,603L344,278Z" fill="#9fd79a" stroke="#9fd79a" stroke-width="1.51"/><path d="M1141,229L1364,-7L1073,-61Z" fill="#7cbf82" stroke="#7cbf82" stroke-width="1.51"/><path d="M1521,353L1141,229L1139,550Z" fill="#59ae65" stroke="#59ae65" stroke-width="1.51"/><path d="M1260,797L1507,563L1139,550Z" fill="#399e54" stroke="#399e54" stroke-width="1.51"/><path d="M1462,795L1507,563L1260,797Z" fill="#2c944b" stroke="#2c944b" stroke-width="1.51"/><path d="M1507,563L1521,353L1139,550Z" fill="#48a259" stroke="#48a259" stroke-width="1.51"/><path d="M1438,1133L1462,795L1260,797Z" fill="#208742" stroke="#208742" stroke-width="1.51"/><path d="M770,-105L505,-334L484,47Z" fill="#b1dfac" stroke="#b1dfac" stroke-width="1.51"/><path d="M914,-392L505,-334L770,-105Z" fill="#b0ddac" stroke="#b0ddac" stroke-width="1.51"/><path d="M1064,-305L770,-105L1073,-61Z" fill="#97d09a" stroke="#97d09a" stroke-width="1.51"/><path d="M1393,-329L1064,-305L1073,-61Z" fill="#91c896" stroke="#91c896" stroke-width="1.51"/><path d="M280,-38L7,25L344,278Z" fill="#bae4b2" stroke="#bae4b2" stroke-width="1.51"/><path d="M188,-333L7,25L280,-38Z" fill="#ccebc5" stroke="#ccebc5" stroke-width="1.51"/><path d="M1070,1123L1438,1133L1260,797Z" fill="#208741" stroke="#208741" stroke-width="1.51"/><path d="M602,1173L939,1275L788,958Z" fill="#3e954e" stroke="#3e954e" stroke-width="1.51"/><path d="M1064,-305L914,-392L770,-105Z" fill="#a1d5a3" stroke="#a1d5a3" stroke-width="1.51"/><path d="M602,1173L335,1210L939,1275Z" fill="#489251" stroke="#489251" stroke-width="1.51"/><path d="M318,1015L335,1210L602,1173Z" fill="#5ca262" stroke="#5ca262" stroke-width="1.51"/><path d="M-89,1242L335,1210L318,1015Z" fill="#6aa56e" stroke="#6aa56e" stroke-width="1.51"/><path d="M7,25L-125,357L344,278Z" fill="#b7e2af" stroke="#b7e2af" stroke-width="1.51"/><path d="M61,794L-89,1242L318,1015Z" fill="#76b27b" stroke="#76b27b" stroke-width="1.51"/><path d="M-125,357L-143,577L293,603Z" fill="#9ed59c" stroke="#9ed59c" stroke-width="1.51"/><path d="M505,-334L188,-333L280,-38Z" fill="#c9eac3" stroke="#c9eac3" stroke-width="1.51"/><path d="M70,-369L188,-333L505,-334Z" fill="#d2eecd" stroke="#d2eecd" stroke-width="1.51"/><path d="M-143,577L-227,617L61,794Z" fill="#95d09a" stroke="#95d09a" stroke-width="1.51"/><path d="M-125,357L-227,617L-143,577Z" fill="#a7d9a6" stroke="#a7d9a6" stroke-width="1.51"/><path d="M939,1275L1438,1133L1070,1123Z" fill="#1e803d" stroke="#1e803d" stroke-width="1.51"/><path d="M1879,487L1521,353L1507,563Z" fill="#41964f" stroke="#41964f" stroke-width="1.51"/><path d="M1666,-89L1393,-329L1364,-7Z" fill="#7fb583" stroke="#7fb583" stroke-width="1.51"/><path d="M1364,-7L1393,-329L1073,-61Z" fill="#86c08b" stroke="#86c08b" stroke-width="1.51"/><path d="M1064,-305L1393,-329L914,-392Z" fill="#98cc9d" stroke="#98cc9d" stroke-width="1.51"/><path d="M-125,357L-395,325L-227,617Z" fill="#b2deae" stroke="#b2deae" stroke-width="1.51"/><path d="M-329,-50L-395,325L-125,357Z" fill="#c7e9c2" stroke="#c7e9c2" stroke-width="1.51"/><path d="M188,-333L70,-369L7,25Z" fill="#d7f0d1" stroke="#d7f0d1" stroke-width="1.51"/><path d="M914,-392L70,-369L505,-334Z" fill="#c4e7be" stroke="#c4e7be" stroke-width="1.51"/><path d="M1853,271L1521,353L1879,487Z" fill="#499252" stroke="#499252" stroke-width="1.51"/><path d="M1853,271L1666,-89L1521,353Z" fill="#5ea063" stroke="#5ea063" stroke-width="1.51"/><path d="M1521,353L1666,-89L1364,-7Z" fill="#6cad71" stroke="#6cad71" stroke-width="1.51"/><path d="M1879,487L1507,563L1810,990Z" fill="#248441" stroke="#248441" stroke-width="1.51"/><path d="M-329,-50L-125,357L7,25Z" fill="#cbeac4" stroke="#cbeac4" stroke-width="1.51"/><path d="M-227,617L-264,997L61,794Z" fill="#8ec694" stroke="#8ec694" stroke-width="1.51"/><path d="M-395,325L-264,997L-227,617Z" fill="#9ed3a2" stroke="#9ed3a2" stroke-width="1.51"/><path d="M-264,997L-89,1242L61,794Z" fill="#80b685" stroke="#80b685" stroke-width="1.51"/><path d="M335,1210L-387,1316L939,1275Z" fill="#5e9762" stroke="#5e9762" stroke-width="1.51"/><path d="M1810,990L1507,563L1462,795Z" fill="#208640" stroke="#208640" stroke-width="1.51"/><path d="M-298,-242L-329,-50L7,25Z" fill="#dcf2d6" stroke="#dcf2d6" stroke-width="1.51"/><path d="M1438,1133L1810,990L1462,795Z" fill="#127a37" stroke="#127a37" stroke-width="1.51"/><path d="M70,-369L-298,-242L7,25Z" fill="#ddf2d7" stroke="#ddf2d7" stroke-width="1.51"/><path d="M-329,-50L-298,-242L-395,325Z" fill="#daf1d4" stroke="#daf1d4" stroke-width="1.51"/><path d="M1666,-89L1804,-263L1393,-329Z" fill="#7fb082" stroke="#7fb082" stroke-width="1.51"/><path d="M1853,271L1804,-263L1666,-89Z" fill="#6c9f6f" stroke="#6c9f6f" stroke-width="1.51"/><path d="M1879,487L1804,-263L1853,271Z" fill="#5a935e" stroke="#5a935e" stroke-width="1.51"/><path d="M1438,1133L1738,1300L1810,990Z" fill="#00692a" stroke="#00692a" stroke-width="1.51"/><path d="M939,1275L1738,1300L1438,1133Z" fill="#107032" stroke="#107032" stroke-width="1.51"/><path d="M-264,997L-387,1316L-89,1242Z" fill="#7eab81" stroke="#7eab81" stroke-width="1.51"/><path d="M-89,1242L-387,1316L335,1210Z" fill="#72a075" stroke="#72a075" stroke-width="1.51"/><path d="M939,1275L-387,1316L1738,1300Z" fill="#3a8547" stroke="#3a8547" stroke-width="1.51"/><path d="M-395,325L-387,1316L-264,997Z" fill="#91c397" stroke="#91c397" stroke-width="1.51"/></svg>